<svg xmlns="http://www.w3.org/2000/svg" viewBox="0 0 1297.27 291.17"><polygon points="597.4 71.99 459.65 71.99 459.65 118.54 559.35 118.54 559.35 172.22 459.65 172.22 459.65 219.18 597.4 219.18 597.4 280.58 388.99 280.58 388.99 10.59 597.4 10.59 597.4 71.99" style="fill:#ffe800"/><polygon points="870.2 10.62 608.38 10.62 608.39 72 703.97 72 703.97 280.55 774.61 280.55 774.61 72 870.2 72 870.2 10.62" style="fill:#ffe800"/><polygon points="820.13 280.55 890.79 280.55 942.18 120.59 906.85 10.62 820.13 280.55" style="fill:#d4c100"/><polygon points="993.56 280.55 1064.22 280.55 977.51 10.62 906.85 10.62 993.56 280.55" style="fill:#ffe800"/><path d="M1166.84,136.44h122.35c-1.18,2.63-53.18,45.82-73.18,57.93-.66.4-1.34.8-2,1.21C1205.68,163.27,1166.84,136.44,1166.84,136.44Z" style="fill:#d4c100"/><path d="M1216,194.37c-11.36,6.88-30.48,15.55-51.42,15.55-35.77,0-52.46-29-52.46-64.56s16.7-64.11,52.46-64.11c21.53,0,40.35,12.69,50.58,31.61l63-19.81c-18.71-48.44-62.51-82.44-113.55-82.44-68,0-123.22,60.43-123.22,135s55.17,135,123.22,135,138.38-71.12,124.6-144.11C1288,139.07,1236,182.26,1216,194.37Z" style="fill:#ffe800"/><polygon points="77 10.59 6.34 10.59 81.7 280.58 117.03 154.01 77 10.59" style="fill:#d4c100"/><polygon points="267.76 154.01 227.73 10.59 192.4 137.16 232.43 280.58 232.43 280.58 267.76 154.01" style="fill:#d4c100"/><polygon points="152.36 280.58 81.7 280.58 157.07 10.59 227.73 10.59 152.36 280.58" style="fill:#ffe800"/><polygon points="303.09 280.58 232.43 280.58 307.8 10.59 378.46 10.59 303.09 280.58" style="fill:#ffe800"/></svg>